<svg width="16" height="16" viewBox="0 0 16 16" fill="none" xmlns="http://www.w3.org/2000/svg">
<path d="M2 2C2 3.22576 2 14 2 14" stroke="#424242" stroke-linecap="round"/>
<path d="M12 2L15 8C14.8528 8.27131 12.1701 13.7414 12 14" stroke="#424242" stroke-linecap="round"/>
<path d="M10.5 8C10.5 9.29071 10.133 10.4378 9.56526 11.2488C8.99643 12.0614 8.25856 12.5 7.5 12.5C6.74144 12.5 6.00357 12.0614 5.43474 11.2488C4.86702 10.4378 4.5 9.29071 4.5 8C4.5 6.70929 4.86702 5.56223 5.43474 4.7512C6.00357 3.93859 6.74144 3.5 7.5 3.5C8.25856 3.5 8.99643 3.93859 9.56526 4.7512C10.133 5.56223 10.5 6.70929 10.5 8Z" stroke="#424242"/>
</svg>
