<svg width="16" height="16" viewBox="0 0 16 16" fill="none" xmlns="http://www.w3.org/2000/svg">
<line x1="1" y1="14.5" x2="15" y2="14.5" stroke="#424242"/>
<line x1="1.5" y1="8" x2="1.5" y2="14" stroke="#424242"/>
<line x1="14.5" y1="8" x2="14.5" y2="14" stroke="#424242"/>
<path d="M8.35355 1.64645C8.15829 1.45118 7.84171 1.45118 7.64645 1.64645L4.46447 4.82843C4.2692 5.02369 4.2692 5.34027 4.46447 5.53553C4.65973 5.7308 4.97631 5.7308 5.17157 5.53553L8 2.70711L10.8284 5.53553C11.0237 5.7308 11.3403 5.7308 11.5355 5.53553C11.7308 5.34027 11.7308 5.02369 11.5355 4.82843L8.35355 1.64645ZM8.5 11L8.5 2H7.5L7.5 11H8.5Z" fill="#424242"/>
</svg>
